<mxfile host="app.diagrams.net" modified="2024-04-28T08:31:13.802Z" agent="Mozilla/5.0 (X11; Linux x86_64; rv:125.0) Gecko/20100101 Firefox/125.0" version="24.3.1" etag="tzPflV2xd8SXoACYZIxa" type="github">
  <diagram name="Page-1" id="IVEg9_bCq6A0wPCuQUue">
    <mxGraphModel>
      <root>
        <mxCell id="0" />
        <mxCell id="1" parent="0" />
      </root>
    </mxGraphModel>
  </diagram>
</mxfile>
